<svg xmlns="http://www.w3.org/2000/svg" viewBox="0 0 32 32" id="Dress">
  <path d="M11.492.988a.5.5 0 0 0-.492.508v5.469c0 .06-.01.083.01.139.001.036-.003.103 0 .138a3 3 0 0 0 .392 1.254l.008.014.127.203.031.047a1.991 1.991 0 0 1 .012 2.46h-.004c-1.152 1.523-2.921 4.515-3.558 6.893C7.265 20.926 7 23.977 7 28.496a.5.5 0 0 0 .014.123.5.5 0 0 0-.014.127c0 .356.17.676.404.922s.537.44.895.607c.716.337 1.668.565 2.775.666 2.026.186 4.068-.066 5.354-.761.063.05.13.095.195.134.27.161.594.276.982.373.777.196 1.799.31 2.928.31 1.13 0 2.152-.114 2.928-.31.388-.098.715-.212.984-.373.228-.135.455-.343.524-.646a.5.5 0 0 0 .031-.18v-.963a.5.5 0 0 0 0-.033v-.008c0-4.514-.265-7.563-1.018-10.37-.637-2.379-2.406-5.371-3.558-6.893h-.004a1.991 1.991 0 0 1 .012-2.461.5.5 0 0 0 .03-.05l.128-.2A2.994 2.994 0 0 0 21 7.045c0-.01-.004-.01-.004-.016A.496.496 0 0 0 21 6.965V1.496a.5.5 0 1 0-1 0V4.88c-.128-.122-.197-.288-.35-.389a3.006 3.006 0 0 0-3.652.272 3.008 3.008 0 0 0-3.648-.268c-.156.103-.22.275-.35.4V1.5a.5.5 0 0 0-.508-.508V.988zm6.531 4.004c.371.005.746.115 1.079.334a1.993 1.993 0 0 1 .63 2.668l-.119.19.033-.047A2.999 2.999 0 0 0 19 9.992c0 .684.233 1.326.63 1.838 1.064 1.406 2.82 4.421 3.388 6.541.718 2.683.98 5.625.982 10.082v.012h-.002a5.06 5.06 0 0 0-.537-.162c-.776-.196-1.798-.307-2.928-.307s-2.151.111-2.928.307c-.388.098-.712.214-.982.375-.198.118-.404.286-.5.527-.875.538-2.98.922-4.959.74-1.02-.093-1.878-.313-2.44-.576-.28-.131-.483-.275-.595-.392-.112-.118-.129-.185-.129-.23a.5.5 0 0 0-.014-.126.5.5 0 0 0 .014-.125c0-4.48.261-7.43.982-10.121.568-2.12 2.324-5.135 3.387-6.541.398-.512.63-1.155.631-1.838a3 3 0 0 0-.646-1.855l.033.046-.12-.189A1.994 1.994 0 0 1 12.9 5.33a1.99 1.99 0 0 1 2.698.469l.004.004a.491.491 0 0 0 .068.072.48.48 0 0 0 .023.018l.016.013h.002c.013.01.026.02.039.028h.002a.5.5 0 0 0 .043.023h.002a.501.501 0 0 0 .63-.191c.399-.51.992-.781 1.596-.774zm2.51 24.004c1.061 0 2.024.111 2.684.277.28.07.463.151.605.223a2.8 2.8 0 0 1-.605.223c-.66.166-1.623.277-2.684.277-1.061 0-2.022-.111-2.681-.277a2.821 2.821 0 0 1-.608-.223c.143-.072.328-.152.608-.223.659-.166 1.62-.277 2.681-.277z" color="#000" font-family="sans-serif" font-weight="400" overflow="visible" style="line-height:normal;text-indent:0;text-align:start;text-decoration-line:none;text-decoration-style:solid;text-decoration-color:#000;text-transform:none;block-progression:tb;white-space:normal;isolation:auto;mix-blend-mode:normal;solid-color:#000;solid-opacity:1" fill="#ffffff" class="color000000 svgShape"></path>
</svg>
