<svg xmlns="http://www.w3.org/2000/svg" viewBox="0 0 24 24" id="laptop">
  <path d="M20,15.5V5.5a.5.5,0,0,0-.5-.5H4.5a.5.5,0,0,0-.5.5v10a.5.5,0,0,0,.5.5h15A.5.5,0,0,0,20,15.5ZM19,15H5V6H19Zm4.5,2H22V5.5A2.5,2.5,0,0,0,19.5,3H4.5A2.5,2.5,0,0,0,2,5.5V17H.5a.5.5,0,0,0-.5.5v1A2.5,2.5,0,0,0,2.5,21h19A2.5,2.5,0,0,0,24,18.5v-1A.5.5,0,0,0,23.5,17ZM3,5.5A1.5,1.5,0,0,1,4.5,4h15A1.5,1.5,0,0,1,21,5.5V17H15.5a.51.51,0,0,0-.35.15l-.85.85H9.71l-.85-.85A.51.51,0,0,0,8.5,17H3Zm20,13A1.5,1.5,0,0,1,21.5,20H2.5A1.5,1.5,0,0,1,1,18.5V18H8.29l.85.85A.5.5,0,0,0,9.5,19h5a.5.5,0,0,0,.35-.15l.85-.85H23Z" fill="#ffffff" class="color000000 svgShape"></path>
</svg>
