<svg xmlns="http://www.w3.org/2000/svg" viewBox="0 0 54.99 54.94" id="Shoes">
  <g fill="#000000" class="color000000 svgShape">
    <path fill="#ffffff" d="M11 10.56a3.27 3.27 0 1 1 3.27-3.27A3.27 3.27 0 0 1 11 10.56zm0-5.83a2.57 2.57 0 1 0 2.57 2.57A2.57 2.57 0 0 0 11 4.73zm.93 15.6a3.27 3.27 0 1 1 3.27-3.27 3.27 3.27 0 0 1-3.31 3.26zm0-5.83a2.57 2.57 0 1 0 2.57 2.57 2.57 2.57 0 0 0-2.61-2.58zm.5 12.8a2.77 2.77 0 1 1 2.77-2.77 2.77 2.77 0 0 1-2.81 2.76zm0-4.83a2.07 2.07 0 1 0 2.07 2.07 2.07 2.07 0 0 0-2.11-2.08zM55 45v-.05c-1.09-3.32-4.8-4.25-5-4.3-14.49-1.48-19-8.47-19-8.54a.45.45 0 0 0-.22-.19l-1.85-.86.1-2.84a2.48 2.48 0 0 0 1.9-1.45c.47-1.22-.35-2.66-.77-3.28 1.26-2.08-.22-4.22-1.36-5.23V.49a.5.5 0 0 0-.22-.4.52.52 0 0 0-.52-.09C27.13.37 15.7.42 8.69.37 5.9.47 4 1.27 3.06 2.74a2.61 2.61 0 0 0-2.54.57C-.43 4.37.2 6.21.26 6.38L4.2 20.53C3 22.41 2.65 23.92 3.22 25a3.41 3.41 0 0 0 2.63 1.56L7 30.78c-1.19 1.79-1.54 3.23-1 4.28a2.73 2.73 0 0 0 1.76 1.34 28.09 28.09 0 0 0-.51 9.8v5.61a.5.5 0 0 0 .46.49L19 53.36a77.91 77.91 0 0 0 15 1.58c14.18 0 20.43-4.83 20.77-5.1a.49.49 0 0 0 .18-.39v-4.33A.38.38 0 0 0 55 45zM6.43 25.66a.47.47 0 0 0-.17 0s-1.64-.06-2.15-1c-.4-.78 0-2.05 1-3.67a.5.5 0 0 0 .07-.41l-4-14.42C1.08 5.7.79 4.5 1.26 4a1.56 1.56 0 0 1 1.36-.29C1.91 5.9 3.06 8.4 3.37 9c.04.09 3.31 8.86 3.06 16.66zm.39 9c-.35-.73 0-1.93 1.09-3.47a.5.5 0 0 0 .09-.45l-1-3.63a.33.33 0 0 0 0-.14c.75-8.23-2.72-18.12-2.75-18.22a.5.5 0 0 1-.06-.12c-.28-.58-1.36-3.2-.44-5.07a.33.33 0 0 0 0-.06.36.36 0 0 1 0-.08c.72-1.27 2.36-2 4.87-2 2.79 0 15.74.09 19-.28v17.4a.51.51 0 0 0 .18.4c.11.08 2.72 2.23 1.16 4.31a46.2 46.2 0 0 1-13.28 4.27.35.35 0 0 0 .06.7h.06A49.66 49.66 0 0 0 29.25 24c.38.55 1 1.66.7 2.4-.17.45-.69.75-1.54.9a.4.4 0 0 0-.15.06 11.53 11.53 0 0 1-2.49.09.35.35 0 0 0 0 .69h.93a10.8 10.8 0 0 0 1.3-.02l-.11 3.23a.5.5 0 0 0 .29.47l2 .94c.71 1 5.61 7.44 19.57 8.85 0 0 3.15.78 4.17 3.39-1.37 1.34-10.37 8.85-34.53 2.71a7.67 7.67 0 0 0-1.54-5.62c-2.61-3.39-7.61-4.49-9.26-4.76.07-.39.17-.8.27-1.21a.52.52 0 0 0-.09-.42.48.48 0 0 0-.37-.2s-1.2-.09-1.58-.88zM8.46 38c1.55.26 6.41 1.33 8.84 4.5a7.06 7.06 0 0 1 1.41 5.05 80 80 0 0 1-10.51-1.8A27.87 27.87 0 0 1 8.46 38zM54 49.2c-1.5 1-12.13 7.64-34.85 3.17l-10.86-1v-4.54a89.06 89.06 0 0 0 10.58 1.77 71.34 71.34 0 0 0 17.72 2.53c10.34 0 15.49-3.24 17.4-4.84z" class="color231300 svgShape"></path>
  </g>
</svg>
